<svg version="1.1" id="Layer_1" xmlns="http://www.w3.org/2000/svg" xmlns:xlink="http://www.w3.org/1999/xlink" x="0px" y="0px"
	 width="100%" viewBox="0 0 980 858" enable-background="new 0 0 980 858" xml:space="preserve">
<path fill="#000000" opacity="1.000000" stroke="none" 
	d="
M0.999997,447.000000 
	C1.000000,438.979095 1.000000,430.958191 1.374900,422.342163 
	C5.525046,399.530975 14.338300,379.854645 30.445095,363.675232 
	C31.757904,362.356506 32.039848,359.052582 31.509369,357.005829 
	C26.113630,336.187469 25.901176,315.174164 28.709536,294.027802 
	C31.736221,271.237488 40.783360,250.566467 51.789204,230.715759 
	C75.171616,188.542007 107.557373,153.960251 144.890381,124.119606 
	C239.321091,48.640213 347.638184,9.244116 468.412964,1.935723 
	C480.599670,1.971035 492.323700,1.907132 504.510590,1.897210 
	C525.586121,3.045935 546.321350,3.085842 566.784912,5.463899 
	C604.669617,9.866456 641.690491,18.702099 677.805908,31.068598 
	C755.671814,57.731140 825.326599,98.047546 884.004089,156.240677 
	C914.764954,186.747604 940.225037,221.075104 955.646118,262.004639 
	C965.168457,287.278046 969.780029,313.334686 964.868652,340.313843 
	C963.357788,348.613251 960.433167,356.646942 958.526062,364.887939 
	C957.988892,367.209167 957.791321,370.676056 959.095459,372.183960 
	C967.901489,382.366028 973.143677,394.274445 976.950806,406.932861 
	C978.539917,412.216583 979.664307,417.640076 981.000000,423.000000 
	C981.000000,431.020905 981.000000,439.041809 980.636902,447.682983 
	C973.076721,490.368134 949.240173,518.196716 908.305115,530.246521 
	C895.489136,534.019104 881.840149,535.170715 868.488220,536.853760 
	C855.335938,538.511780 843.825867,542.874573 834.387451,552.574951 
	C826.492920,560.688721 818.086121,568.307983 809.829956,576.065002 
	C798.262207,586.933289 786.134094,597.013916 771.184143,603.064514 
	C743.635864,614.213806 716.427124,611.922729 689.675598,600.528381 
	C673.492371,593.635376 657.696594,585.838562 641.598206,578.739258 
	C617.537292,568.128662 595.655823,572.058960 575.613831,588.834045 
	C567.968445,595.233154 560.021301,601.364929 551.709717,606.859192 
	C510.783417,633.913086 469.767670,633.867371 429.204346,606.106689 
	C419.333710,599.351440 410.202576,591.514465 400.745331,584.156921 
	C394.645599,579.411438 388.182526,575.464111 380.389435,574.112915 
	C369.165466,572.166748 357.977020,572.500366 347.434814,576.733643 
	C331.277008,583.222046 315.426971,590.476868 299.446899,597.407654 
	C282.248596,604.866699 264.667175,611.100098 245.593948,610.365356 
	C218.656204,609.327637 195.803314,598.583008 176.370331,580.087341 
	C164.667877,568.949280 153.062637,557.673340 140.792175,547.186584 
	C136.327271,543.370667 130.316193,540.463684 124.563843,539.237183 
	C111.570747,536.467163 98.298897,535.005310 85.141205,533.006348 
	C45.129566,526.927673 13.202106,497.674072 3.715725,458.398376 
	C2.798722,454.601746 1.904687,450.799591 0.999997,447.000000 
M780.446533,469.980530 
	C727.735474,480.548431 674.374023,485.605957 620.761047,487.773376 
	C583.811157,489.267151 546.806091,489.816895 509.822388,489.968170 
	C428.834198,490.299469 347.858459,489.702362 267.359253,479.042297 
	C226.418640,473.620758 185.894852,466.208405 146.701233,452.740967 
	C115.457809,442.005280 86.124275,427.865631 61.687889,404.999481 
	C59.789532,403.223114 57.768463,401.577881 54.819748,399.016327 
	C51.793919,406.441681 48.710281,412.872253 46.514507,419.592865 
	C36.670578,449.722107 57.776886,484.792694 88.421928,489.373291 
	C98.786415,490.922516 109.114731,492.814575 119.526108,493.927643 
	C139.487839,496.061676 157.312149,502.775360 172.059006,516.768005 
	C179.794479,524.107910 187.550827,531.426575 195.363388,538.684204 
	C200.121964,543.104797 204.989716,547.408569 209.835800,551.734131 
	C229.143661,568.967896 251.005737,570.645691 274.084412,561.363098 
	C288.703674,555.483032 302.836884,548.396851 317.202606,541.883728 
	C337.641937,532.616943 359.002716,528.933655 381.401154,530.992981 
	C402.065369,532.892883 418.755127,542.959167 434.309479,555.752930 
	C441.369019,561.559509 448.597992,567.238525 456.211029,572.279175 
	C479.293365,587.562195 502.750854,587.671631 525.736816,572.228760 
	C536.631104,564.909546 546.730347,556.416260 557.317688,548.628784 
	C573.306274,536.868347 590.282593,527.994995 611.153809,531.321777 
	C611.803955,531.425354 612.485596,531.355286 613.151428,531.332520 
	C634.224365,530.612854 654.034790,535.228699 672.803955,544.874756 
	C683.728455,550.489258 694.814392,555.841614 706.080139,560.730042 
	C731.473389,571.748718 754.729797,568.848694 775.125854,549.205322 
	C784.846619,539.843262 794.697327,530.616211 804.424927,521.261169 
	C818.287109,507.929840 833.971191,498.073578 853.414307,495.319672 
	C863.796570,493.849182 874.177368,492.359070 884.579102,491.037811 
	C909.053284,487.929047 926.868469,476.294128 935.455322,452.247742 
	C939.991638,439.544403 937.570435,416.640198 930.003052,405.838104 
	C929.601929,406.111328 929.148315,406.331970 928.805725,406.666382 
	C910.625427,424.412079 888.806396,436.260925 865.484253,445.628601 
	C838.247803,456.568573 809.954590,463.876831 780.446533,469.980530 
M464.341003,219.889633 
	C463.779785,220.715546 463.178375,221.517212 462.663483,222.371033 
	C454.584625,235.767334 458.178223,252.187958 471.028320,260.640869 
	C484.691284,269.628418 500.923340,266.684631 510.089661,253.350861 
	C517.654724,242.346405 522.658020,230.361160 523.332031,216.799683 
	C523.772583,207.936005 517.696777,200.452637 508.743713,200.943161 
	C492.079193,201.856216 476.772156,206.816422 464.341003,219.889633 
M671.938477,224.620697 
	C669.057190,231.300446 668.622681,238.248947 670.593140,245.138138 
	C673.844177,256.504944 681.780701,263.127045 693.269287,264.940857 
	C705.813049,266.921265 716.720459,262.730316 722.579895,251.510498 
	C727.732605,241.644028 731.268433,230.692780 733.929565,219.831345 
	C736.735901,208.377060 728.619751,199.822403 716.749451,200.833618 
	C702.878052,202.015274 690.296570,207.201279 679.203369,215.569275 
	C676.380432,217.698715 674.515015,221.097443 671.938477,224.620697 
M256.724701,217.218460 
	C243.586273,229.039871 245.431854,248.826553 257.156494,258.686401 
	C270.210388,269.664062 289.519684,267.774597 299.510925,253.809616 
	C307.293579,242.931656 311.569733,230.492508 312.488708,217.113892 
	C313.150757,207.475601 307.426300,201.382339 297.741028,200.849854 
	C295.261353,200.713516 292.669861,200.649292 290.278473,201.199005 
	C278.166687,203.983185 266.731537,208.307404 256.724701,217.218460 
M388.877808,154.623474 
	C393.567383,151.880325 399.587097,150.176834 402.696411,146.198608 
	C411.934906,134.378357 417.682861,120.736038 417.885681,105.409866 
	C418.004242,96.449219 413.502716,91.938583 404.629211,91.164215 
	C402.649567,90.991455 400.616211,90.947067 398.649841,91.188362 
	C386.045959,92.734947 374.441254,97.195526 364.221680,104.598793 
	C353.423920,112.420929 350.372314,127.547028 356.049622,139.566223 
	C361.192474,150.453995 377.865784,159.149063 388.877808,154.623474 
M591.769836,155.775284 
	C597.542603,156.360016 602.748047,154.595795 607.103760,151.065720 
	C621.284424,139.572952 627.694153,124.043266 628.565674,106.284668 
	C628.939148,98.674599 624.392700,90.286057 612.434265,90.982300 
	C597.122864,91.873779 583.438232,96.828613 572.350220,107.436020 
	C568.965881,110.673676 565.936157,115.502197 565.148010,120.021408 
	C561.813354,139.141617 570.633179,152.613815 591.769836,155.775284 
z"/>
<path fill="#FEFEFE" opacity="1.000000" stroke="none" 
	d="
M0.999997,447.468658 
	C1.904687,450.799591 2.798722,454.601746 3.715725,458.398376 
	C13.202106,497.674072 45.129566,526.927673 85.141205,533.006348 
	C98.298897,535.005310 111.570747,536.467163 124.563843,539.237183 
	C130.316193,540.463684 136.327271,543.370667 140.792175,547.186584 
	C153.062637,557.673340 164.667877,568.949280 176.370331,580.087341 
	C195.803314,598.583008 218.656204,609.327637 245.593948,610.365356 
	C264.667175,611.100098 282.248596,604.866699 299.446899,597.407654 
	C315.426971,590.476868 331.277008,583.222046 347.434814,576.733643 
	C357.977020,572.500366 369.165466,572.166748 380.389435,574.112915 
	C388.182526,575.464111 394.645599,579.411438 400.745331,584.156921 
	C410.202576,591.514465 419.333710,599.351440 429.204346,606.106689 
	C469.767670,633.867371 510.783417,633.913086 551.709717,606.859192 
	C560.021301,601.364929 567.968445,595.233154 575.613831,588.834045 
	C595.655823,572.058960 617.537292,568.128662 641.598206,578.739258 
	C657.696594,585.838562 673.492371,593.635376 689.675598,600.528381 
	C716.427124,611.922729 743.635864,614.213806 771.184143,603.064514 
	C786.134094,597.013916 798.262207,586.933289 809.829956,576.065002 
	C818.086121,568.307983 826.492920,560.688721 834.387451,552.574951 
	C843.825867,542.874573 855.335938,538.511780 868.488220,536.853760 
	C881.840149,535.170715 895.489136,534.019104 908.305115,530.246521 
	C949.240173,518.196716 973.076721,490.368134 980.636902,448.151642 
	C981.000000,584.930908 981.000000,721.861877 981.000000,859.000000 
	C828.979187,859.000000 676.958252,859.000000 524.636230,858.591431 
	C524.828003,858.123413 525.320068,858.018738 525.813660,858.011108 
	C588.630066,857.043274 651.420166,855.510864 713.884521,848.008789 
	C752.076416,843.421814 789.970825,837.119568 827.046082,826.649902 
	C857.886536,817.940979 887.644653,806.674805 914.093384,788.013733 
	C954.372620,759.594482 972.763062,721.542236 964.820557,672.082153 
	C963.686462,665.020264 961.489807,658.129089 959.784912,651.158875 
	C959.054443,650.933167 958.323914,650.707458 957.593384,650.481750 
	C954.651611,653.884155 952.125488,657.796692 948.691406,660.594971 
	C937.620056,669.616150 926.859375,679.257751 914.812744,686.796692 
	C882.575439,706.971069 846.553406,717.661743 809.785950,725.952515 
	C753.549988,738.633301 696.383179,744.394714 638.941162,746.699036 
	C585.510864,748.842346 532.010132,750.046021 478.537842,750.134094 
	C398.865265,750.265320 319.297028,747.324341 240.253708,736.080505 
	C203.806854,730.895996 167.812408,723.674805 132.907135,711.810486 
	C102.646889,701.525024 74.017197,688.036865 49.749180,666.654419 
	C44.272530,661.829041 39.046654,656.718994 33.209530,651.277832 
	C27.472471,670.567993 24.664743,689.457458 27.470972,708.906250 
	C31.811947,738.991638 47.495281,762.412292 70.530685,781.370911 
	C94.025917,800.707947 121.366928,812.653381 150.001938,821.900635 
	C183.165695,832.610413 217.142227,840.017578 251.706955,844.072998 
	C288.241364,848.359558 324.868347,852.160706 361.555359,854.749634 
	C392.613647,856.941345 423.815369,857.100281 454.973083,858.368652 
	C454.992554,858.578491 455.000000,859.000000 455.000000,859.000000 
	C303.743134,859.000000 152.486237,859.000000 1.000000,859.000000 
	C1.000000,721.979187 1.000000,584.958252 0.999997,447.468658 
M866.752869,663.265015 
	C877.184509,657.788513 887.989685,652.914429 897.976379,646.720520 
	C925.803589,629.461365 942.620117,604.956482 945.377991,571.683289 
	C945.948730,564.797791 944.723633,563.498718 938.363281,566.123596 
	C916.663940,575.079102 893.708313,577.631714 870.681702,580.076965 
	C868.027466,580.358765 865.021362,581.797424 863.088623,583.649597 
	C853.468323,592.868958 844.409424,602.681213 834.672546,611.770264 
	C817.978333,627.353821 799.448303,640.246948 777.308289,646.915527 
	C741.016296,657.846619 705.602966,654.386902 671.086243,639.475952 
	C655.998413,632.958130 640.934692,626.372070 626.019409,619.472473 
	C617.605835,615.580444 610.403198,616.837402 603.350098,622.501587 
	C596.084656,628.336365 588.554749,633.844055 581.096069,639.435547 
	C547.588318,664.554626 509.734070,673.711243 468.584564,668.588989 
	C446.135193,665.794556 425.903320,656.116272 407.217651,643.611267 
	C396.859863,636.679688 387.147919,628.780212 377.178192,621.272644 
	C371.234039,616.796448 365.009430,615.685486 358.019135,618.824219 
	C346.208008,624.127625 334.211639,629.022522 322.445618,634.421448 
	C302.227753,643.698425 281.563873,650.851379 259.065918,652.492249 
	C226.359192,654.877625 196.341782,648.056213 169.129669,629.372925 
	C150.283813,616.433716 134.968506,599.714600 118.916237,583.743286 
	C117.012238,581.848877 113.957481,580.542725 111.254585,580.117371 
	C99.259155,578.229370 87.144249,577.075134 75.177345,575.039490 
	C66.209946,573.514099 57.402294,571.049438 48.250187,568.939941 
	C48.250187,571.641968 48.006016,574.119080 48.287834,576.534790 
	C51.213455,601.613220 63.046009,621.785400 82.405952,637.677795 
	C105.085968,656.295593 131.735870,666.839172 159.461075,675.057129 
	C198.690552,686.684998 238.882584,693.536194 279.534241,697.072388 
	C322.163879,700.780579 364.879303,704.203674 407.628235,705.645874 
	C451.898895,707.139343 496.257874,706.452576 540.572510,706.067749 
	C576.054749,705.759583 611.606567,705.650208 646.984192,703.297485 
	C683.163330,700.891418 719.262207,696.569336 755.223145,691.785461 
	C793.187012,686.735168 830.478333,678.317078 866.752869,663.265015 
z"/>
<path fill="#010101" opacity="1.000000" stroke="none" 
	d="
M454.953613,858.158691 
	C423.815369,857.100281 392.613647,856.941345 361.555359,854.749634 
	C324.868347,852.160706 288.241364,848.359558 251.706955,844.072998 
	C217.142227,840.017578 183.165695,832.610413 150.001938,821.900635 
	C121.366928,812.653381 94.025917,800.707947 70.530685,781.370911 
	C47.495281,762.412292 31.811947,738.991638 27.470972,708.906250 
	C24.664743,689.457458 27.472471,670.567993 33.209530,651.277832 
	C39.046654,656.718994 44.272530,661.829041 49.749180,666.654419 
	C74.017197,688.036865 102.646889,701.525024 132.907135,711.810486 
	C167.812408,723.674805 203.806854,730.895996 240.253708,736.080505 
	C319.297028,747.324341 398.865265,750.265320 478.537842,750.134094 
	C532.010132,750.046021 585.510864,748.842346 638.941162,746.699036 
	C696.383179,744.394714 753.549988,738.633301 809.785950,725.952515 
	C846.553406,717.661743 882.575439,706.971069 914.812744,686.796692 
	C926.859375,679.257751 937.620056,669.616150 948.691406,660.594971 
	C952.125488,657.796692 954.651611,653.884155 957.593384,650.481750 
	C958.323914,650.707458 959.054443,650.933167 959.784912,651.158875 
	C961.489807,658.129089 963.686462,665.020264 964.820557,672.082153 
	C972.763062,721.542236 954.372620,759.594482 914.093384,788.013733 
	C887.644653,806.674805 857.886536,817.940979 827.046082,826.649902 
	C789.970825,837.119568 752.076416,843.421814 713.884521,848.008789 
	C651.420166,855.510864 588.630066,857.043274 525.813660,858.011108 
	C525.320068,858.018738 524.828003,858.123413 524.167603,858.591431 
	C519.975464,859.000000 515.950928,859.000000 511.290985,858.594360 
	C492.088287,858.178772 473.520935,858.168762 454.953613,858.158691 
z"/>
<path fill="#FFFFFF" opacity="1.000000" stroke="none" 
	d="
M467.950287,1.836509 
	C347.638184,9.244116 239.321091,48.640213 144.890381,124.119606 
	C107.557373,153.960251 75.171616,188.542007 51.789204,230.715759 
	C40.783360,250.566467 31.736221,271.237488 28.709536,294.027802 
	C25.901176,315.174164 26.113630,336.187469 31.509369,357.005829 
	C32.039848,359.052582 31.757904,362.356506 30.445095,363.675232 
	C14.338300,379.854645 5.525046,399.530975 1.374900,421.873535 
	C1.000000,281.735809 1.000000,141.471619 1.000000,1.000000 
	C156.354172,1.000000 311.708435,1.000000 467.523682,1.209410 
	C467.984680,1.418821 467.950287,1.836509 467.950287,1.836509 
z"/>
<path fill="#FEFEFE" opacity="1.000000" stroke="none" 
	d="
M981.000000,422.531342 
	C979.664307,417.640076 978.539917,412.216583 976.950806,406.932861 
	C973.143677,394.274445 967.901489,382.366028 959.095459,372.183960 
	C957.791321,370.676056 957.988892,367.209167 958.526062,364.887939 
	C960.433167,356.646942 963.357788,348.613251 964.868652,340.313843 
	C969.780029,313.334686 965.168457,287.278046 955.646118,262.004639 
	C940.225037,221.075104 914.764954,186.747604 884.004089,156.240677 
	C825.326599,98.047546 755.671814,57.731140 677.805908,31.068598 
	C641.690491,18.702099 604.669617,9.866456 566.784912,5.463899 
	C546.321350,3.085842 525.586121,3.045935 504.489258,1.686935 
	C504.005066,1.422680 504.000000,1.000000 504.000000,1.000000 
	C662.922607,1.000000 821.845215,1.000000 981.000000,1.000000 
	C981.000000,141.354141 981.000000,281.708405 981.000000,422.531342 
z"/>
<path fill="#C5C5C5" opacity="1.000000" stroke="none" 
	d="
M454.973083,858.368591 
	C473.520935,858.168762 492.088287,858.178772 510.827820,858.594360 
	C492.645782,859.000000 474.291534,859.000000 455.468658,859.000000 
	C455.000000,859.000000 454.992554,858.578491 454.973083,858.368591 
z"/>
<path fill="#C3C3C3" opacity="1.000000" stroke="none" 
	d="
M503.531342,1.000000 
	C504.000000,1.000000 504.005066,1.422680 504.026428,1.632955 
	C492.323700,1.907132 480.599670,1.971035 468.412964,1.935723 
	C467.950287,1.836509 467.984680,1.418821 467.992340,1.209410 
	C479.687561,1.000000 491.375122,1.000000 503.531342,1.000000 
z"/>
<path fill="#FEFEFE" opacity="1.000000" stroke="none" 
	d="
M780.867798,469.927307 
	C809.954590,463.876831 838.247803,456.568573 865.484253,445.628601 
	C888.806396,436.260925 910.625427,424.412079 928.805725,406.666382 
	C929.148315,406.331970 929.601929,406.111328 930.003052,405.838104 
	C937.570435,416.640198 939.991638,439.544403 935.455322,452.247742 
	C926.868469,476.294128 909.053284,487.929047 884.579102,491.037811 
	C874.177368,492.359070 863.796570,493.849182 853.414307,495.319672 
	C833.971191,498.073578 818.287109,507.929840 804.424927,521.261169 
	C794.697327,530.616211 784.846619,539.843262 775.125854,549.205322 
	C754.729797,568.848694 731.473389,571.748718 706.080139,560.730042 
	C694.814392,555.841614 683.728455,550.489258 672.803955,544.874756 
	C654.034790,535.228699 634.224365,530.612854 613.151428,531.332520 
	C612.485596,531.355286 611.803955,531.425354 611.153809,531.321777 
	C590.282593,527.994995 573.306274,536.868347 557.317688,548.628784 
	C546.730347,556.416260 536.631104,564.909546 525.736816,572.228760 
	C502.750854,587.671631 479.293365,587.562195 456.211029,572.279175 
	C448.597992,567.238525 441.369019,561.559509 434.309479,555.752930 
	C418.755127,542.959167 402.065369,532.892883 381.401154,530.992981 
	C359.002716,528.933655 337.641937,532.616943 317.202606,541.883728 
	C302.836884,548.396851 288.703674,555.483032 274.084412,561.363098 
	C251.005737,570.645691 229.143661,568.967896 209.835800,551.734131 
	C204.989716,547.408569 200.121964,543.104797 195.363388,538.684204 
	C187.550827,531.426575 179.794479,524.107910 172.059006,516.768005 
	C157.312149,502.775360 139.487839,496.061676 119.526108,493.927643 
	C109.114731,492.814575 98.786415,490.922516 88.421928,489.373291 
	C57.776886,484.792694 36.670578,449.722107 46.514507,419.592865 
	C48.710281,412.872253 51.793919,406.441681 54.819748,399.016327 
	C57.768463,401.577881 59.789532,403.223114 61.687889,404.999481 
	C86.124275,427.865631 115.457809,442.005280 146.701233,452.740967 
	C185.894852,466.208405 226.418640,473.620758 267.359253,479.042297 
	C347.858459,489.702362 428.834198,490.299469 509.822388,489.968170 
	C546.806091,489.816895 583.811157,489.267151 620.761047,487.773376 
	C674.374023,485.605957 727.735474,480.548431 780.867798,469.927307 
z"/>
<path fill="#FDFDFD" opacity="1.000000" stroke="none" 
	d="
M464.576660,219.618683 
	C476.772156,206.816422 492.079193,201.856216 508.743713,200.943161 
	C517.696777,200.452637 523.772583,207.936005 523.332031,216.799683 
	C522.658020,230.361160 517.654724,242.346405 510.089661,253.350861 
	C500.923340,266.684631 484.691284,269.628418 471.028320,260.640869 
	C458.178223,252.187958 454.584625,235.767334 462.663483,222.371033 
	C463.178375,221.517212 463.779785,220.715546 464.576660,219.618683 
z"/>
<path fill="#FDFDFD" opacity="1.000000" stroke="none" 
	d="
M672.074036,224.266830 
	C674.515015,221.097443 676.380432,217.698715 679.203369,215.569275 
	C690.296570,207.201279 702.878052,202.015274 716.749451,200.833618 
	C728.619751,199.822403 736.735901,208.377060 733.929565,219.831345 
	C731.268433,230.692780 727.732605,241.644028 722.579895,251.510498 
	C716.720459,262.730316 705.813049,266.921265 693.269287,264.940857 
	C681.780701,263.127045 673.844177,256.504944 670.593140,245.138138 
	C668.622681,238.248947 669.057190,231.300446 672.074036,224.266830 
z"/>
<path fill="#FDFDFD" opacity="1.000000" stroke="none" 
	d="
M256.993103,216.982880 
	C266.731537,208.307404 278.166687,203.983185 290.278473,201.199005 
	C292.669861,200.649292 295.261353,200.713516 297.741028,200.849854 
	C307.426300,201.382339 313.150757,207.475601 312.488708,217.113892 
	C311.569733,230.492508 307.293579,242.931656 299.510925,253.809616 
	C289.519684,267.774597 270.210388,269.664062 257.156494,258.686401 
	C245.431854,248.826553 243.586273,229.039871 256.993103,216.982880 
z"/>
<path fill="#FDFDFD" opacity="1.000000" stroke="none" 
	d="
M388.495300,154.762756 
	C377.865784,159.149063 361.192474,150.453995 356.049622,139.566223 
	C350.372314,127.547028 353.423920,112.420929 364.221680,104.598793 
	C374.441254,97.195526 386.045959,92.734947 398.649841,91.188362 
	C400.616211,90.947067 402.649567,90.991455 404.629211,91.164215 
	C413.502716,91.938583 418.004242,96.449219 417.885681,105.409866 
	C417.682861,120.736038 411.934906,134.378357 402.696411,146.198608 
	C399.587097,150.176834 393.567383,151.880325 388.495300,154.762756 
z"/>
<path fill="#FDFDFD" opacity="1.000000" stroke="none" 
	d="
M591.342224,155.736130 
	C570.633179,152.613815 561.813354,139.141617 565.148010,120.021408 
	C565.936157,115.502197 568.965881,110.673676 572.350220,107.436020 
	C583.438232,96.828613 597.122864,91.873779 612.434265,90.982300 
	C624.392700,90.286057 628.939148,98.674599 628.565674,106.284668 
	C627.694153,124.043266 621.284424,139.572952 607.103760,151.065720 
	C602.748047,154.595795 597.542603,156.360016 591.342224,155.736130 
z"/>
<path fill="#010101" opacity="1.000000" stroke="none" 
	d="
M866.420959,663.455688 
	C830.478333,678.317078 793.187012,686.735168 755.223145,691.785461 
	C719.262207,696.569336 683.163330,700.891418 646.984192,703.297485 
	C611.606567,705.650208 576.054749,705.759583 540.572510,706.067749 
	C496.257874,706.452576 451.898895,707.139343 407.628235,705.645874 
	C364.879303,704.203674 322.163879,700.780579 279.534241,697.072388 
	C238.882584,693.536194 198.690552,686.684998 159.461075,675.057129 
	C131.735870,666.839172 105.085968,656.295593 82.405952,637.677795 
	C63.046009,621.785400 51.213455,601.613220 48.287834,576.534790 
	C48.006016,574.119080 48.250187,571.641968 48.250187,568.939941 
	C57.402294,571.049438 66.209946,573.514099 75.177345,575.039490 
	C87.144249,577.075134 99.259155,578.229370 111.254585,580.117371 
	C113.957481,580.542725 117.012238,581.848877 118.916237,583.743286 
	C134.968506,599.714600 150.283813,616.433716 169.129669,629.372925 
	C196.341782,648.056213 226.359192,654.877625 259.065918,652.492249 
	C281.563873,650.851379 302.227753,643.698425 322.445618,634.421448 
	C334.211639,629.022522 346.208008,624.127625 358.019135,618.824219 
	C365.009430,615.685486 371.234039,616.796448 377.178192,621.272644 
	C387.147919,628.780212 396.859863,636.679688 407.217651,643.611267 
	C425.903320,656.116272 446.135193,665.794556 468.584564,668.588989 
	C509.734070,673.711243 547.588318,664.554626 581.096069,639.435547 
	C588.554749,633.844055 596.084656,628.336365 603.350098,622.501587 
	C610.403198,616.837402 617.605835,615.580444 626.019409,619.472473 
	C640.934692,626.372070 655.998413,632.958130 671.086243,639.475952 
	C705.602966,654.386902 741.016296,657.846619 777.308289,646.915527 
	C799.448303,640.246948 817.978333,627.353821 834.672546,611.770264 
	C844.409424,602.681213 853.468323,592.868958 863.088623,583.649597 
	C865.021362,581.797424 868.027466,580.358765 870.681702,580.076965 
	C893.708313,577.631714 916.663940,575.079102 938.363281,566.123596 
	C944.723633,563.498718 945.948730,564.797791 945.377991,571.683289 
	C942.620117,604.956482 925.803589,629.461365 897.976379,646.720520 
	C887.989685,652.914429 877.184509,657.788513 866.420959,663.455688 
z"/>
</svg>