<svg version="1.1" id="Layer_1" xmlns="http://www.w3.org/2000/svg" xmlns:xlink="http://www.w3.org/1999/xlink" x="0px" y="0px"
	 width="100%" viewBox="0 0 464 368" enable-background="new 0 0 464 368" xml:space="preserve">
<path fill="#000000" opacity="1.000000" stroke="none" 
	d="
M72.796646,221.637146 
	C109.885963,212.805069 153.579636,234.632690 162.563370,280.862915 
	C169.175232,314.887421 149.550217,356.169739 105.426910,366.704163 
	C66.168297,376.077148 25.934238,350.077606 16.812502,309.781464 
	C7.967426,270.707489 33.249451,230.647095 72.796646,221.637146 
M86.572296,360.740906 
	C90.285660,364.978638 94.972488,362.570526 99.095619,362.143494 
	C102.858742,361.753693 108.360428,362.291351 109.733894,358.296051 
	C111.190826,354.057922 107.080383,350.470337 104.362274,347.137482 
	C98.062538,339.412933 91.024666,332.306946 85.367958,324.037872 
	C80.166046,316.433624 77.411461,308.662659 82.390556,299.852844 
	C82.591545,299.497223 82.416206,298.928925 82.416206,298.424866 
	C76.365059,300.005371 72.497864,307.166992 73.666695,314.098328 
	C75.002747,322.021240 77.516724,329.552948 80.721657,336.892242 
	C83.925072,344.228088 86.956329,351.623810 86.572296,360.740906 
M62.736423,331.455261 
	C63.135937,326.984619 63.333210,322.484741 63.974075,318.048950 
	C65.680008,306.241211 67.638695,294.504974 83.282394,292.356689 
	C76.881104,289.354767 70.923302,290.167450 66.481064,294.168152 
	C63.602657,296.760468 61.432533,299.901306 59.448715,303.195251 
	C52.446083,314.822510 50.255016,329.060974 40.031235,338.948944 
	C39.047882,339.900024 39.172268,341.172943 40.120972,342.089661 
	C45.349651,347.141907 50.738190,351.983948 57.772278,354.845856 
	C62.655056,347.726685 61.889286,339.884338 62.736423,331.455261 
M148.963455,328.590759 
	C151.282928,325.450165 150.482819,323.407898 146.749725,322.505890 
	C144.655243,321.999817 142.543472,321.510315 140.411163,321.225098 
	C128.883072,319.683258 117.167603,319.913940 105.729454,317.439301 
	C98.448883,315.864136 92.760353,312.425781 89.871330,305.220612 
	C89.402000,304.050140 89.159737,302.591125 87.509369,302.341553 
	C85.384880,307.479614 86.270859,312.172607 90.297226,316.430389 
	C96.302490,322.780762 104.160339,326.142029 112.000221,329.381042 
	C119.706802,332.565002 127.547531,335.396301 133.458145,341.664429 
	C135.737091,344.081207 137.721085,343.564209 139.677444,341.190735 
	C142.851730,337.339691 146.180222,333.610046 148.963455,328.590759 
M32.856445,310.375824 
	C41.763309,303.660858 49.644691,295.704498 58.776798,289.239807 
	C66.948936,283.454712 75.259216,281.558777 84.402077,286.710876 
	C84.510353,286.771912 84.838455,286.442841 85.062485,286.293640 
	C81.443672,279.625641 76.569237,277.148132 69.140289,277.837646 
	C63.270618,278.382446 57.751160,280.049225 52.264973,282.094849 
	C45.426617,284.644714 38.870186,287.864166 31.697084,289.672974 
	C28.027103,290.598358 22.930216,287.952454 20.824615,292.352722 
	C19.107677,295.940765 20.975206,300.213379 21.275534,304.181000 
	C21.325703,304.843750 21.402914,305.508087 21.523613,306.161346 
	C23.219757,315.341522 24.214935,315.767151 32.856445,310.375824 
M78.005692,262.486420 
	C67.067635,256.336884 54.018341,254.135147 44.822502,244.715408 
	C43.507183,243.368088 42.168373,243.729691 40.926140,244.990875 
	C35.922241,250.071075 31.473949,255.525314 28.664835,262.193237 
	C31.989296,264.927643 35.643887,265.412628 39.257538,265.740570 
	C47.691048,266.505890 56.163952,266.878357 64.579231,267.793213 
	C75.876793,269.021454 86.388008,271.757263 90.365982,284.463501 
	C90.420120,284.636414 90.926247,284.667816 91.324913,284.799469 
	C93.134567,282.664856 92.697311,280.203705 92.271210,277.763092 
	C90.898468,269.900360 84.565346,266.566345 78.005692,262.486420 
M80.158104,246.350510 
	C84.369072,251.507477 88.741371,256.542572 92.752007,261.850891 
	C98.335464,269.240967 101.763885,277.141113 96.852386,286.369324 
	C96.546738,286.943634 96.452858,287.654572 97.055710,288.206940 
	C101.828636,286.466339 104.732124,282.207367 104.926369,276.405609 
	C105.200569,268.215912 102.571594,260.659943 99.634033,253.194748 
	C96.537132,245.324570 92.384766,237.788574 92.445877,228.957794 
	C92.457474,227.282028 91.762177,225.509415 89.648949,225.386688 
	C82.304245,224.960083 75.234818,226.072815 68.180695,229.020050 
	C70.568489,236.108749 75.730423,240.558121 80.158104,246.350510 
M97.775406,305.848999 
	C101.468025,308.559265 105.625839,309.287842 110.095428,308.810638 
	C115.935539,308.187042 121.473633,306.500732 126.945862,304.419250 
	C133.933273,301.761322 140.612701,298.139771 148.072861,296.902557 
	C158.996063,295.091003 159.014587,295.195831 157.574570,284.184692 
	C157.488251,283.524628 157.368896,282.868622 157.253754,282.212677 
	C155.258514,270.846771 153.269180,270.195648 144.191742,277.620789 
	C136.592010,283.837158 129.580521,290.755829 121.556602,296.464447 
	C114.259331,301.656128 106.761543,305.684814 97.499153,301.462921 
	C97.040222,301.253723 96.295128,301.672363 95.796104,301.775360 
	C95.118820,303.636139 96.350311,304.438354 97.775406,305.848999 
M127.407829,266.044342 
	C129.209976,262.305939 130.513336,258.322510 133.048096,254.946457 
	C139.984604,245.707581 139.971359,245.697113 130.467896,238.801880 
	C129.794189,238.313095 129.121811,237.821762 128.434326,237.352844 
	C119.938438,231.557999 118.315376,232.449692 117.171776,242.844177 
	C116.098671,252.597992 116.002151,262.424530 114.400246,272.148956 
	C112.773819,282.022278 109.674583,290.532562 99.244453,294.210327 
	C99.113022,294.256653 99.154495,294.793304 99.115654,295.097931 
	C105.356949,297.114807 109.641487,295.791840 114.479218,290.396301 
	C120.624504,283.542480 123.619049,275.013306 127.407829,266.044342 
z"/>
<path fill="#000000" opacity="1.000000" stroke="none" 
	d="
M424.909821,134.992676 
	C414.097382,143.863464 401.898132,144.603195 389.150146,142.688110 
	C384.916534,142.052109 380.857819,140.901642 377.091492,144.713760 
	C375.248932,146.578690 374.657593,148.450592 374.095490,150.700562 
	C373.277771,153.973709 371.536316,156.017334 368.072510,153.563263 
	C365.442596,151.699997 364.127594,153.558792 362.623566,155.058289 
	C353.893829,163.761902 345.183655,172.485184 336.468842,181.203796 
	C335.880249,181.792633 335.355682,182.455093 334.719604,182.985229 
	C331.922028,185.317001 328.780151,186.572678 325.743500,183.815277 
	C322.779114,181.123489 323.204254,177.833893 325.551239,174.845734 
	C331.927979,166.726944 338.370148,158.659561 344.781281,150.567764 
	C346.228790,148.740784 347.631256,146.877640 349.098846,145.067169 
	C350.521545,143.312119 350.952789,141.766968 349.145782,139.825150 
	C346.716003,137.214096 347.573303,135.578720 350.958374,134.570190 
	C361.065063,131.559021 362.448303,127.109383 356.784973,118.217072 
	C347.179504,103.135124 348.002838,87.350861 355.649506,72.066040 
	C363.221436,56.930546 375.714905,47.986443 393.071381,46.610126 
	C402.432312,45.867836 411.310730,47.313519 419.717682,51.546413 
	C423.463776,53.432556 425.746033,52.195049 426.720093,48.195286 
	C427.192627,46.254990 427.741425,44.332886 428.275574,42.408066 
	C430.009521,36.159950 430.646790,36.034485 435.591980,39.911175 
	C438.825806,42.446232 440.667603,45.609249 441.125641,49.584267 
	C441.400604,51.970409 442.066345,53.692947 444.826843,54.057117 
	C449.489105,54.672165 452.483063,57.853504 455.146912,61.338387 
	C456.203064,62.720074 457.931061,64.184410 456.636871,66.190651 
	C455.564362,67.853226 453.636627,68.266335 451.764160,68.210281 
	C450.110931,68.160797 448.472717,67.723740 446.817322,67.604607 
	C444.250763,67.419884 441.634186,66.497948 438.699066,67.884293 
	C452.833344,94.051598 445.201080,115.700859 424.909821,134.992676 
M390.470306,68.757103 
	C397.172577,67.516502 403.898529,66.387955 410.564667,64.976562 
	C413.009766,64.458870 416.707764,64.645462 416.877899,61.290852 
	C417.047852,57.938484 413.883667,56.408249 411.032257,55.230648 
	C410.265106,54.913834 409.473358,54.646168 408.675751,54.415039 
	C387.671814,48.328491 362.584473,62.863743 357.827209,84.264313 
	C356.746002,89.128204 355.033020,94.428436 357.908081,100.160393 
	C358.557434,98.911018 358.988007,98.371407 359.131775,97.763916 
	C362.991821,81.452011 374.156097,72.897957 390.470306,68.757103 
M337.531708,164.989227 
	C334.431549,168.904221 331.301880,172.796417 328.246704,176.746216 
	C327.133575,178.185333 326.704956,179.883820 328.324890,181.192902 
	C329.700012,182.304123 331.227844,181.719727 332.411743,180.643143 
	C334.257904,178.964325 336.021881,177.192795 337.782196,175.422302 
	C345.883911,167.273849 353.998657,159.137970 362.039093,150.929367 
	C363.354614,149.586334 365.346069,148.100250 363.627441,145.842941 
	C361.855469,143.515564 354.854736,143.422653 352.971863,145.720551 
	C347.906830,151.902161 342.956421,158.177719 337.531708,164.989227 
z"/>
<path fill="#000000" opacity="1.000000" stroke="none" 
	d="
M51.532471,152.568954 
	C43.463142,151.241150 40.297081,148.039291 39.731743,140.426315 
	C39.417480,136.194412 37.511353,133.341431 33.879532,131.241333 
	C29.980227,128.986557 29.750858,126.418610 33.055195,123.323837 
	C39.031109,117.726913 46.706295,116.568390 54.350510,116.006287 
	C58.782726,115.680374 59.867764,114.550583 59.158764,109.967529 
	C56.622318,93.571594 62.885120,79.749001 73.607834,67.994202 
	C87.694839,52.551300 104.711334,43.638733 126.460533,47.259434 
	C130.630936,47.953701 131.816360,45.607307 131.661728,42.008350 
	C131.301010,33.613094 133.200653,25.817860 137.862030,18.775568 
	C140.924454,14.148956 144.162628,13.844375 147.083801,18.572855 
	C150.041855,23.361052 153.667145,25.854780 159.341599,26.565285 
	C165.860840,27.381563 168.276566,30.270603 169.222382,36.643635 
	C169.936142,41.453033 171.223511,45.486961 176.113190,47.962528 
	C179.399307,49.626244 178.906723,53.381187 175.307281,56.122715 
	C169.825714,60.297764 163.437302,62.045353 156.639297,62.302139 
	C146.195389,62.696644 146.173798,62.653507 147.555710,72.788376 
	C148.854462,82.313126 146.126602,91.051888 141.549133,99.081947 
	C131.988190,115.854271 118.115746,127.390030 99.084427,132.185043 
	C93.662529,133.551132 88.165070,133.949402 82.757027,132.719666 
	C78.289146,131.703751 77.008469,133.254913 77.318634,137.460648 
	C77.900635,145.352356 75.965210,152.660019 71.644112,159.294968 
	C68.089630,164.752823 65.165627,164.860718 61.485916,159.580658 
	C59.075928,156.122559 56.846893,152.572388 51.532471,152.568954 
M101.974373,106.530869 
	C97.185509,99.153290 91.044220,93.167702 83.454697,88.715492 
	C72.556664,82.322418 70.735382,83.143196 67.774193,95.629082 
	C64.576950,109.110283 69.945496,120.161613 81.234558,123.524048 
	C88.621643,125.724281 95.789162,124.320877 102.782791,122.051941 
	C107.049118,120.667816 107.879288,117.859009 105.915428,113.739647 
	C104.843292,111.490753 103.545280,109.349541 101.974373,106.530869 
M136.085114,88.384644 
	C139.252090,83.939751 139.916138,78.797874 139.212204,73.688637 
	C136.896347,56.879601 123.753044,53.163589 109.397461,55.837776 
	C107.836182,56.128616 105.862083,56.320946 105.478294,58.375481 
	C105.034836,60.749485 107.066292,61.481968 108.636047,62.295536 
	C118.729370,67.526672 126.174072,75.342903 131.448685,85.339134 
	C132.294022,86.941185 133.129608,88.690811 136.085114,88.384644 
z"/>
<path fill="#000000" opacity="1.000000" stroke="none" 
	d="
M308.439819,82.454796 
	C291.156891,95.828720 273.029480,107.369682 255.246857,119.398460 
	C244.356339,126.765198 233.055557,133.524338 222.139313,140.854645 
	C217.957291,143.662872 214.465210,143.252396 210.772217,140.426682 
	C209.979172,139.819855 209.129623,139.287338 208.328140,138.690979 
	C200.026184,132.513809 199.845520,132.600510 194.270264,141.691040 
	C192.185211,145.090714 189.757889,148.281021 187.472534,151.556946 
	C186.770523,152.563263 185.844849,153.379730 184.553635,153.039856 
	C183.252548,152.697342 182.553925,151.370728 182.794708,150.309891 
	C184.746841,141.709396 179.767471,136.348007 174.434280,130.796478 
	C171.964462,128.225540 170.600677,124.539085 169.904419,120.896317 
	C169.075943,116.561859 170.650208,115.263252 174.724014,116.797546 
	C179.996155,118.783157 185.253372,120.761330 191.255310,120.354309 
	C191.878510,117.331024 190.105850,115.385254 189.072342,113.230400 
	C184.556061,103.814041 185.569733,99.892929 193.868790,93.628876 
	C222.500366,72.018021 253.144836,53.497456 283.788086,34.974201 
	C285.351349,34.029228 287.016327,33.243767 288.667633,32.454536 
	C295.532013,29.173748 299.424377,30.073301 304.351837,35.965305 
	C306.031128,37.973339 307.218048,40.712437 310.105499,41.208775 
	C315.013947,42.052517 318.167389,39.103786 317.693909,34.052982 
	C317.259857,29.423214 316.217468,24.846228 315.868042,20.213934 
	C315.495819,15.278637 316.795135,14.516699 321.386200,16.537312 
	C324.893921,18.081146 328.368317,19.727655 331.416565,22.092772 
	C333.004944,23.325190 334.518311,24.709585 334.333893,27.022827 
	C333.702698,34.940678 338.730804,39.438530 344.383545,43.486595 
	C345.856567,44.541470 347.639191,45.156105 349.246094,46.034363 
	C350.528320,46.735191 352.246216,47.254780 351.902069,49.186485 
	C351.542145,51.206608 349.750702,51.658703 348.083984,51.763653 
	C342.411652,52.120838 336.772308,51.484051 331.156921,50.801281 
	C328.529572,50.481819 325.882385,49.941242 323.376648,49.104305 
	C320.365967,48.098709 319.392548,49.374920 319.179108,52.064022 
	C318.963989,54.774612 319.616028,57.335526 320.333374,59.917545 
	C323.256622,70.439186 322.873077,71.559120 314.348602,78.085129 
	C312.497894,79.501945 310.594635,80.850075 308.439819,82.454796 
M268.209808,105.778694 
	C270.785065,104.432465 271.468079,102.518158 270.829132,99.587036 
	C268.526947,89.026459 266.581757,78.388054 264.278320,67.827782 
	C263.305084,63.366131 263.043671,58.658974 260.678070,54.330135 
	C256.088623,55.795143 252.803192,59.011848 248.879807,61.075779 
	C246.556915,62.297760 246.132980,63.911446 246.787827,66.430122 
	C250.011780,78.830254 252.531006,91.378815 254.604980,104.028534 
	C255.060867,106.809135 254.748199,110.092545 257.640594,112.620506 
	C260.956451,110.470886 264.283722,108.313873 268.209808,105.778694 
M226.171814,78.269058 
	C225.126282,76.280640 223.929901,77.541382 222.922394,78.220352 
	C220.027390,80.171349 217.284500,82.358719 214.322159,84.195755 
	C211.946487,85.668983 211.580521,87.373955 212.115234,90.044044 
	C214.887604,103.887871 217.429565,117.777748 220.077255,131.646729 
	C220.345688,133.052826 220.194519,134.741409 222.492691,135.510849 
	C225.781204,133.936493 228.982452,131.624466 232.299591,129.452805 
	C235.280762,127.501106 235.879135,125.328392 235.135742,121.879852 
	C232.054535,107.586273 229.283539,93.225838 226.171814,78.269058 
M289.120331,86.309380 
	C289.645966,87.581078 288.758362,89.420425 291.147644,90.373680 
	C294.411163,88.034203 297.923645,85.578514 301.362244,83.023407 
	C302.933411,81.855919 303.422272,80.271477 303.258392,78.210693 
	C302.349243,66.777412 300.614166,55.463482 298.393463,44.229229 
	C296.146729,32.863457 295.442261,32.684017 285.186859,38.549370 
	C282.362030,40.164959 281.269928,41.879971 281.924072,45.331795 
	C284.455933,58.692669 286.640442,72.119377 289.120331,86.309380 
M175.677383,125.123024 
	C176.139755,126.007111 176.541565,126.929649 177.074570,127.768883 
	C179.997284,132.370911 185.387650,132.736771 188.598648,128.487854 
	C189.916458,126.744057 189.106689,124.747444 187.342407,124.597115 
	C183.077057,124.233688 179.211014,122.106415 174.550797,121.735489 
	C174.927078,122.977554 175.161148,123.750214 175.677383,125.123024 
M320.370544,25.495810 
	C320.526001,26.305069 320.586334,27.147532 320.854950,27.917290 
	C321.622620,30.116787 320.272949,33.819504 323.359131,34.257179 
	C326.733582,34.735741 327.272797,30.867857 328.704926,28.592489 
	C329.942169,26.626762 329.239532,25.132414 327.397552,24.056742 
	C325.306427,22.835581 323.363708,21.208483 320.787537,21.261255 
	C319.932434,22.423820 320.332733,23.602737 320.370544,25.495810 
M338.719147,44.560104 
	C333.704193,40.967537 332.271881,41.203342 328.478119,46.465126 
	C332.631714,46.567215 336.530060,48.478008 340.588928,47.153896 
	C340.652924,45.797558 339.849854,45.426712 338.719147,44.560104 
M331.477325,35.485004 
	C327.417450,36.093933 325.186371,39.577866 321.803955,41.534466 
	C324.107300,40.715538 326.631256,41.497314 328.545868,40.213219 
	C330.042236,39.209625 333.298462,39.246460 331.477325,35.485004 
z"/>
<path fill="#000000" opacity="1.000000" stroke="none" 
	d="
M352.289825,244.950851 
	C355.057068,263.645935 343.221649,283.873962 325.577148,291.110535 
	C318.712677,293.925842 318.758087,293.917358 320.128784,301.234131 
	C322.762207,315.290985 325.350403,329.356323 327.921082,343.424805 
	C328.189117,344.891449 328.323059,346.402222 328.327942,347.893158 
	C328.338623,351.153656 327.531311,353.885559 323.612366,354.322235 
	C319.673828,354.761108 317.617584,352.617462 316.945618,349.111816 
	C315.725098,342.744141 314.675385,336.341248 313.680817,329.933380 
	C312.124908,319.908783 310.184174,309.930878 309.604156,299.777893 
	C309.379120,295.838898 306.871918,295.045135 303.581573,294.649689 
	C291.572601,293.206299 281.068481,288.625671 273.387146,278.944427 
	C261.785461,264.322144 259.051758,248.119812 267.350433,231.279312 
	C275.747070,214.240036 290.154449,205.231812 309.294037,206.109024 
	C328.068268,206.969482 341.486206,216.668030 348.979889,234.081100 
	C350.419006,237.425156 351.948517,240.794739 352.289825,244.950851 
M320.791321,231.592987 
	C316.977478,229.690567 312.993195,228.747177 308.702972,229.312103 
	C300.657135,230.371582 293.817627,236.928085 292.522522,244.874969 
	C291.559448,250.784134 295.283997,257.403870 301.245148,260.377930 
	C306.774261,263.136414 314.501495,260.406586 316.914398,254.785370 
	C318.616852,250.819183 317.505310,247.626450 313.968872,245.277054 
	C312.499054,244.300552 310.881287,243.928802 309.316772,245.122177 
	C308.040161,246.095917 307.265930,247.256516 307.994049,248.993637 
	C308.838104,251.007202 308.308044,252.567657 306.226044,253.474487 
	C304.252808,254.333908 302.651886,253.561417 301.213013,252.276535 
	C297.360199,248.836105 298.025909,242.560059 302.568176,239.290115 
	C308.096497,235.310287 315.318085,236.383759 319.378632,242.027649 
	C322.894043,246.913742 324.182495,252.146576 321.285492,257.958282 
	C318.093842,264.360962 313.022369,267.864166 305.965332,268.343536 
	C296.541412,268.983704 289.145935,264.063568 285.349091,254.868256 
	C281.689941,246.006577 284.282013,235.349533 291.662323,228.912216 
	C302.170197,219.746933 316.248016,219.658417 327.309113,228.688080 
	C337.992950,237.409805 340.987579,253.736252 334.138733,265.922455 
	C326.954102,278.706116 313.383545,285.289764 298.699921,283.115356 
	C285.407654,281.146973 272.938690,269.083618 269.629028,255.334793 
	C268.544220,250.828430 268.988739,246.220901 268.088989,241.751328 
	C264.308929,253.733444 267.255768,264.451752 274.198975,274.461578 
	C282.772308,286.821442 300.697815,293.700226 315.823456,290.351807 
	C332.624634,286.632477 342.733124,276.150024 345.283691,259.283600 
	C348.463470,238.256058 331.602509,209.015579 300.567200,217.475723 
	C285.741486,221.517166 276.247986,234.579514 277.296265,249.008713 
	C278.299713,262.820526 289.109161,274.508514 302.761230,276.543365 
	C314.715118,278.325073 326.814209,271.310394 331.229919,260.037994 
	C335.420380,249.340714 331.713470,238.692307 320.791321,231.592987 
M320.130219,349.047150 
	C320.757324,350.233917 321.369873,351.563477 323.001556,351.355469 
	C324.676971,351.141937 324.816528,349.650085 325.098755,348.351624 
	C325.454559,346.714691 325.374542,345.151978 325.038086,343.458832 
	C323.097717,333.694305 321.353241,323.891052 319.521057,314.104889 
	C318.543915,308.885773 317.572235,303.664642 316.491241,298.466675 
	C316.199188,297.062164 315.849854,295.173004 313.828918,295.519440 
	C311.767303,295.872864 312.395264,297.791504 312.324982,299.204010 
	C312.300385,299.698181 312.358551,300.201538 312.425049,300.694458 
	C314.574585,316.630188 316.796783,332.554718 320.130219,349.047150 
z"/>
<path fill="#000000" opacity="1.000000" stroke="none" 
	d="
M201.056030,222.133896 
	C182.966354,232.711578 164.236267,235.025864 145.332428,226.593536 
	C135.562332,222.235443 129.175293,213.459015 124.666298,203.660034 
	C124.114937,202.461823 123.682076,201.209076 123.166817,199.912460 
	C120.379532,199.900162 118.536278,201.758377 116.412766,202.933060 
	C111.603615,205.593338 106.798012,208.262909 102.049210,211.028732 
	C94.798973,215.251434 94.885681,215.250977 90.938721,208.101334 
	C88.555885,203.784973 87.665070,198.136703 81.121750,197.392120 
	C79.434914,197.200165 79.729828,194.970322 79.801155,193.494263 
	C80.394691,181.211411 83.982613,169.587982 88.051582,158.141159 
	C89.442215,154.229050 94.396065,153.415222 96.869080,149.838730 
	C101.468552,143.186951 108.892929,143.745087 113.988167,150.164490 
	C119.821609,157.513962 125.276115,164.996368 127.422340,174.389359 
	C127.776421,175.938965 128.232437,177.647308 130.157715,179.103958 
	C136.239410,171.906281 145.356796,169.656128 153.409653,165.540253 
	C161.914490,161.193375 171.007233,160.782303 180.208511,162.921494 
	C184.091354,163.824203 187.875076,165.145050 191.726028,166.194534 
	C203.490585,169.400696 212.355576,175.949844 216.787079,187.701508 
	C217.004517,188.278091 217.556702,188.728439 217.983551,189.276794 
	C220.622421,188.731506 222.083588,186.724442 223.361588,184.951035 
	C229.502197,176.430069 238.899200,172.610687 247.637726,167.901093 
	C251.602325,165.764389 258.322021,169.214081 259.694672,173.653214 
	C260.897552,177.543274 260.741974,182.002335 264.598145,184.756546 
	C265.000000,185.043549 265.109985,185.996979 265.061737,186.618393 
	C264.066223,199.434738 262.155945,212.068008 257.414124,224.124008 
	C256.950104,225.303741 256.123352,226.606049 254.952286,226.075195 
	C249.759247,223.721313 246.904526,227.633209 243.589813,230.114243 
	C235.301468,236.317947 235.315475,236.388474 228.996353,227.883499 
	C224.748627,222.166397 220.583786,216.387741 215.775024,209.806030 
	C211.324585,214.945496 206.330627,218.425674 201.056030,222.133896 
M133.512421,180.007721 
	C126.698349,186.468567 123.738945,194.433701 127.626839,203.078445 
	C133.410385,215.938141 142.838974,225.278885 157.491776,227.672958 
	C176.893051,230.842850 194.006668,225.834244 208.865280,212.940125 
	C216.117935,206.646362 217.985794,198.481781 214.573349,189.530823 
	C210.436203,178.678970 202.261139,173.120743 191.767990,168.966446 
	C170.034439,160.361969 151.518402,166.451340 133.512421,180.007721 
M84.023674,194.762497 
	C86.571030,195.080399 88.187340,196.560486 89.338120,198.786789 
	C90.864792,201.740311 92.624115,204.575851 94.096619,207.554443 
	C95.433136,210.257965 97.052582,210.686295 99.655228,209.139542 
	C105.092316,205.908249 110.630409,202.845139 116.156647,199.766159 
	C121.860374,196.588287 127.244751,184.151901 125.635323,177.892166 
	C122.971008,167.529587 117.784973,158.556351 110.701340,150.627563 
	C108.209900,147.838867 103.158012,147.027679 100.876884,149.476868 
	C97.622185,152.971344 93.195076,156.149658 91.295944,159.967499 
	C85.992332,170.629349 82.651955,182.170990 84.023674,194.762497 
M229.179764,182.668762 
	C227.940231,184.014038 226.647964,185.314850 225.469696,186.711807 
	C217.664902,195.965210 217.154785,206.547287 224.057037,216.300095 
	C226.265961,219.421249 228.608612,222.447662 230.823685,225.564606 
	C235.784058,232.544632 235.719040,232.490829 242.796066,227.330399 
	C245.538742,225.330490 247.619141,221.684326 251.527451,222.191818 
	C254.554108,222.584839 255.290497,221.109222 256.035461,218.896194 
	C260.845581,204.607178 263.995087,190.322052 257.335846,175.639069 
	C255.652298,171.927002 252.130402,169.209290 248.890533,170.797958 
	C242.207245,174.075119 235.073090,176.686951 229.179764,182.668762 
z"/>
<path fill="#000000" opacity="1.000000" stroke="none" 
	d="
M389.752502,298.000000 
	C389.756683,289.168457 389.640900,280.834198 389.826263,272.506653 
	C389.902527,269.081909 388.915649,267.212555 385.528931,265.734619 
	C376.071960,261.607635 368.625092,254.479309 364.239685,245.506500 
	C361.569855,240.043793 361.308929,233.307281 365.761475,226.792953 
	C370.398865,220.008179 375.481659,214.181259 382.389404,209.983109 
	C389.967804,205.377304 398.017212,204.507919 406.312347,208.056580 
	C416.313690,212.335175 423.459290,219.974686 429.507721,228.625931 
	C432.617340,233.073700 429.517273,246.912918 424.777252,252.049118 
	C419.444458,257.827698 413.796509,263.276978 406.313751,266.243652 
	C403.214508,267.472351 402.296661,269.493622 402.311859,272.784973 
	C402.425659,297.445770 402.374512,322.107544 402.314636,346.768860 
	C402.299103,353.150452 400.212158,355.091919 394.773193,354.360321 
	C390.277008,353.755493 389.815155,350.437134 389.783417,346.989624 
	C389.695923,337.492523 389.750519,327.994080 389.750366,318.496185 
	C389.750275,311.830811 389.752533,305.165405 389.752502,298.000000 
M421.349792,245.846954 
	C428.833527,245.757797 426.682648,240.090225 426.846588,236.021606 
	C427.083893,230.132187 426.358521,229.681442 420.596924,230.728714 
	C404.755219,233.608246 388.851074,233.785400 372.894165,231.819977 
	C370.269257,231.496674 367.081329,229.867386 366.260376,234.404510 
	C364.973083,241.519180 366.168671,244.933746 370.791046,245.513168 
	C387.328369,247.586258 403.898132,248.842484 421.349792,245.846954 
M415.297821,217.210968 
	C407.412811,210.363754 398.542175,206.808014 388.221710,210.481964 
	C379.871765,213.454453 373.841766,219.307480 368.891296,228.049103 
	C387.978668,230.956985 405.595123,230.225952 423.598663,227.202744 
	C422.220398,222.357376 418.842407,220.166977 415.297821,217.210968 
M399.143463,269.603790 
	C394.306702,267.276459 393.066650,268.012390 393.058624,273.472473 
	C393.023468,297.425385 393.033905,321.378418 393.047333,345.331390 
	C393.048096,346.656738 393.154388,347.991791 393.338501,349.304535 
	C393.519745,350.596863 394.344635,351.388794 395.667480,351.512268 
	C397.150085,351.650696 398.357422,351.136963 398.738312,349.600281 
	C399.055389,348.320984 399.293854,346.983398 399.297455,345.670929 
	C399.366547,320.568848 399.395721,295.466614 399.143463,269.603790 
M402.809204,250.396469 
	C397.500061,250.352493 392.190552,250.248871 386.881866,250.281723 
	C381.816284,250.313065 376.696899,248.276215 370.482819,250.081360 
	C378.964478,259.155792 386.955872,266.520660 399.331177,264.835236 
	C409.151917,263.497711 416.022278,257.453705 422.944977,249.275208 
	C415.588379,249.701706 409.662994,250.045227 402.809204,250.396469 
z"/>
<path fill="#000000" opacity="1.000000" stroke="none" 
	d="
M119.916481,183.190369 
	C114.233513,182.938293 110.648689,179.501099 107.436623,176.022842 
	C104.076706,172.384476 107.711945,168.384766 107.066399,163.557846 
	C112.911057,165.936325 117.259193,169.071564 120.519150,172.538910 
	C122.169334,174.294083 121.755630,178.930099 124.279457,181.267593 
	C123.374268,183.445312 121.745514,183.101562 119.916481,183.190369 
z"/>
<path fill="#000000" opacity="1.000000" stroke="none" 
	d="
M120.211166,185.720245 
	C118.717957,188.900314 117.385780,191.874130 114.097977,193.402374 
	C111.763794,194.487366 110.335114,194.113388 109.184906,191.143143 
	C113.822845,190.960831 112.072487,179.841019 120.211166,185.720245 
z"/>
<path fill="#000000" opacity="1.000000" stroke="none" 
	d="
M224.098450,204.238998 
	C223.438263,200.872025 225.556885,197.412384 222.560852,194.849930 
	C227.982941,187.543503 234.841782,183.815933 243.986618,185.026871 
	C244.521820,194.374512 238.803513,197.486679 231.267532,198.251266 
	C230.346527,202.375565 229.431137,206.004730 232.162399,209.561493 
	C226.444580,211.997284 226.115662,207.013580 224.098450,204.238998 
z"/>
</svg>