<svg version="1.1" id="Layer_1" xmlns="http://www.w3.org/2000/svg" xmlns:xlink="http://www.w3.org/1999/xlink" x="0px" y="0px"
	 width="100%" viewBox="0 0 224 224" enable-background="new 0 0 224 224" xml:space="preserve">
<path fill="#000000" opacity="1.000000" stroke="none" 
	d="
M225.000000,159.531342 
	C207.401215,182.986145 182.173950,192.045776 155.229858,196.964340 
	C118.600891,203.650864 82.312706,201.921967 47.127872,188.659103 
	C32.958374,183.317932 19.901239,176.019257 10.483753,163.627136 
	C-0.500687,149.173111 0.124596,132.495392 12.035115,118.803284 
	C17.785923,112.192261 24.589098,106.860603 32.317101,102.798637 
	C35.243294,101.260574 36.855782,99.143028 37.597984,96.034081 
	C39.834648,86.665115 43.325493,77.659637 45.180241,68.147858 
	C46.803841,59.821503 52.756691,54.279068 59.644199,49.816589 
	C73.129242,41.079506 88.291534,37.320881 103.998070,36.069489 
	C126.733208,34.258110 148.912750,36.663517 169.339905,47.904903 
	C177.576645,52.437714 184.704819,58.432312 186.884964,68.002304 
	C188.179306,73.683876 190.191422,79.159866 191.261810,84.852898 
	C193.190903,95.113205 197.464249,103.053909 207.609299,107.884766 
	C214.810410,111.313789 220.004547,117.843597 224.739471,124.794441 
	C225.000000,136.354233 225.000000,147.708450 225.000000,159.531342 
M131.285049,127.101479 
	C129.904144,125.160042 130.258987,122.126816 127.521019,120.961517 
	C124.738914,122.321136 123.603195,125.070511 121.847214,127.229843 
	C117.343575,132.768021 112.716965,133.136230 107.384979,128.361282 
	C104.984619,126.211693 103.093437,123.431709 100.027985,121.729050 
	C98.794365,124.460091 98.552010,126.896797 98.271446,129.369843 
	C97.798363,133.539856 96.915436,137.701294 93.812309,140.782547 
	C90.890793,143.683472 87.218010,144.667343 83.236343,143.272415 
	C78.378716,141.570602 77.365501,137.262802 76.774529,132.883148 
	C76.369125,129.878769 77.045120,126.658546 74.807335,123.668968 
	C73.691055,124.971069 72.802818,125.944153 71.984741,126.973030 
	C69.358261,130.276367 66.625999,133.999115 61.841774,132.833115 
	C56.460205,131.521530 54.706543,126.805939 53.672173,121.878723 
	C53.278259,120.002304 52.866497,118.129631 52.253674,115.283813 
	C47.761578,120.659485 43.436684,122.246414 38.651012,116.266472 
	C37.068333,121.397270 35.969677,125.578796 34.491676,129.621643 
	C31.389381,138.107529 33.546520,145.267365 39.505871,151.653046 
	C46.630161,159.287018 55.620705,163.980820 65.189537,167.553024 
	C89.472023,176.618103 114.618874,177.647354 139.981949,174.324585 
	C156.093872,172.213760 171.561600,167.652496 185.200333,158.258011 
	C200.548447,147.686127 203.674866,133.289810 193.496689,119.259918 
	C190.363983,122.289062 187.082184,124.264893 183.434174,119.959747 
	C182.082550,118.364662 180.986404,115.872757 178.372986,116.790565 
	C176.148026,117.571945 175.676727,119.960625 175.124069,122.091034 
	C173.955170,126.597069 174.156082,131.348114 172.510834,135.777985 
	C170.484970,141.232590 166.311310,144.332260 161.311630,143.866547 
	C156.574631,143.425278 153.428207,139.705002 152.673462,133.747452 
	C152.263275,130.509537 151.758774,127.283554 151.267685,123.848442 
	C148.403809,124.858871 147.641998,127.285530 146.123047,128.920181 
	C140.729507,134.724640 136.246048,134.424026 131.285049,127.101479 
M128.884354,103.376251 
	C132.660294,102.795525 136.470398,102.379471 140.205933,101.604111 
	C152.872147,98.975052 165.080795,95.185760 174.719543,85.948074 
	C183.056534,77.957993 182.979446,68.169846 174.798752,60.089142 
	C170.951889,56.289291 166.448761,53.473705 161.557999,51.295849 
	C138.349487,40.961094 114.250450,40.186630 89.735207,44.996658 
	C78.351212,47.230259 67.528770,51.128422 58.683270,58.961754 
	C48.550514,67.935051 48.687939,78.113457 58.759045,87.128571 
	C65.873177,93.496773 74.485878,96.971466 83.482971,99.631882 
	C98.048080,103.938736 112.980057,104.160080 128.884354,103.376251 
M103.720322,193.661514 
	C125.259750,194.355835 146.643112,193.369965 167.549377,187.531433 
	C183.411667,183.101562 198.548965,177.065109 210.857376,165.711243 
	C219.018005,158.183456 224.703201,149.115128 222.230667,137.412094 
	C219.567856,124.808456 210.501694,117.262695 198.857712,110.099022 
	C201.053131,117.710899 202.550690,123.985809 204.684204,130.036484 
	C207.594025,138.288757 205.426239,145.420761 200.680420,152.120316 
	C193.350876,162.467194 182.823929,168.530563 171.332977,172.875443 
	C141.353989,184.210876 110.608788,185.203949 79.506660,178.556244 
	C64.380363,175.323166 50.045921,169.999954 38.210945,159.578735 
	C28.193331,150.757797 23.052603,140.389374 28.400126,126.764984 
	C30.311117,121.896164 31.375223,116.694939 33.213116,110.297531 
	C24.309380,115.274216 17.963495,120.881462 13.477362,128.452057 
	C7.633593,138.313751 8.113479,148.082687 14.369578,157.611969 
	C19.050766,164.742355 25.555225,169.912155 32.750576,174.232178 
	C54.286484,187.162109 78.151993,191.789749 103.720322,193.661514 
M117.493538,110.374542 
	C91.663254,110.058907 67.074104,106.195328 47.444077,85.497528 
	C46.351192,94.629723 38.851372,102.498665 44.822975,112.187447 
	C54.670219,106.296852 57.421364,107.600136 59.830357,118.697189 
	C60.405910,121.348495 60.226460,124.465019 63.422676,125.998436 
	C66.261528,124.767639 67.105469,121.798073 68.956230,119.742317 
	C70.985725,117.488029 73.064438,115.045349 76.525475,115.939240 
	C80.209694,116.890785 81.743988,119.848167 82.281548,123.350311 
	C82.734947,126.304161 83.006981,129.285645 83.372025,132.253326 
	C83.622795,134.292007 84.022308,136.578598 86.344078,136.918900 
	C88.982819,137.305649 90.136955,135.118271 90.644585,132.925339 
	C91.429085,129.536285 92.016907,126.097458 92.574059,122.661240 
	C93.119659,119.296288 93.689201,115.880981 97.468582,114.672623 
	C101.157829,113.493088 103.804367,115.825195 106.406357,117.950867 
	C108.951912,120.030449 110.417671,124.146248 113.834679,124.218353 
	C117.706352,124.300049 118.707497,119.695724 121.155670,117.336433 
	C126.602730,112.087151 132.154480,113.114487 135.443588,120.022728 
	C136.385971,122.002060 136.449585,124.704697 139.217789,125.511848 
	C141.952713,124.423935 142.963715,121.785568 144.639816,119.782654 
	C146.606705,117.432266 148.690247,115.132759 152.166992,115.883858 
	C155.759445,116.659950 157.247284,119.510513 157.884338,122.744797 
	C158.525208,125.998413 158.836548,129.319809 159.222717,132.619644 
	C159.459427,134.642303 159.505371,136.994522 162.116379,137.143051 
	C164.681076,137.288925 165.920990,135.204987 166.419891,133.007431 
	C167.042374,130.265488 167.392090,127.453163 167.723923,124.655144 
	C169.363785,110.828087 175.237015,107.261620 187.674713,112.854706 
	C192.595596,103.020874 186.643158,94.792900 184.403931,84.961502 
	C176.952347,94.424080 168.137619,99.784889 158.076385,103.421898 
	C145.264297,108.053299 132.091919,110.382668 117.493538,110.374542 
z"/>
</svg>